<mxfile host="app.diagrams.net" agent="Mozilla/5.0 (Windows NT 10.0; Win64; x64) AppleWebKit/537.36 (KHTML, like Gecko) Chrome/128.0.0.0 Safari/537.36 Edg/128.0.0.0" version="24.7.14">
  <diagram name="Trang-1" id="Q_05Ep7pq8MiqGasN3o7">
    <mxGraphModel dx="1403" dy="1499" grid="1" gridSize="10" guides="1" tooltips="1" connect="1" arrows="1" fold="1" page="1" pageScale="1" pageWidth="827" pageHeight="1169" math="0" shadow="0">
      <root>
        <mxCell id="0" />
        <mxCell id="1" parent="0" />
        <mxCell id="nTHT97Taj1ZtHIrwIVXm-15" value="" style="group;" vertex="1" connectable="0" parent="1">
          <mxGeometry x="10" y="40" width="420" height="310" as="geometry" />
        </mxCell>
        <mxCell id="nTHT97Taj1ZtHIrwIVXm-17" value="" style="ellipse;whiteSpace=wrap;html=1;" vertex="1" parent="nTHT97Taj1ZtHIrwIVXm-15">
          <mxGeometry x="-20" y="-60" width="430" height="310" as="geometry" />
        </mxCell>
        <mxCell id="nTHT97Taj1ZtHIrwIVXm-1" value="Parent process" style="text;html=1;align=center;verticalAlign=middle;resizable=0;points=[];autosize=1;strokeColor=none;fillColor=none;" vertex="1" parent="nTHT97Taj1ZtHIrwIVXm-15">
          <mxGeometry x="140" width="100" height="30" as="geometry" />
        </mxCell>
        <mxCell id="nTHT97Taj1ZtHIrwIVXm-3" value="child process 2" style="text;html=1;align=center;verticalAlign=middle;resizable=0;points=[];autosize=1;strokeColor=none;fillColor=none;" vertex="1" parent="nTHT97Taj1ZtHIrwIVXm-15">
          <mxGeometry x="-10" y="140" width="100" height="30" as="geometry" />
        </mxCell>
        <mxCell id="nTHT97Taj1ZtHIrwIVXm-4" value="child process 1" style="text;html=1;align=center;verticalAlign=middle;resizable=0;points=[];autosize=1;strokeColor=none;fillColor=none;" vertex="1" parent="nTHT97Taj1ZtHIrwIVXm-15">
          <mxGeometry x="215" y="70" width="100" height="30" as="geometry" />
        </mxCell>
        <mxCell id="nTHT97Taj1ZtHIrwIVXm-5" value="child process 1" style="text;html=1;align=center;verticalAlign=middle;resizable=0;points=[];autosize=1;strokeColor=none;fillColor=none;" vertex="1" parent="nTHT97Taj1ZtHIrwIVXm-15">
          <mxGeometry x="45" y="70" width="100" height="30" as="geometry" />
        </mxCell>
        <mxCell id="nTHT97Taj1ZtHIrwIVXm-6" value="child process 2" style="text;html=1;align=center;verticalAlign=middle;resizable=0;points=[];autosize=1;strokeColor=none;fillColor=none;" vertex="1" parent="nTHT97Taj1ZtHIrwIVXm-15">
          <mxGeometry x="200" y="140" width="100" height="30" as="geometry" />
        </mxCell>
        <mxCell id="nTHT97Taj1ZtHIrwIVXm-9" value="" style="endArrow=none;html=1;rounded=0;entryX=0.497;entryY=0.942;entryDx=0;entryDy=0;entryPerimeter=0;exitX=0.433;exitY=-0.006;exitDx=0;exitDy=0;exitPerimeter=0;" edge="1" parent="nTHT97Taj1ZtHIrwIVXm-15" source="nTHT97Taj1ZtHIrwIVXm-5" target="nTHT97Taj1ZtHIrwIVXm-1">
          <mxGeometry width="50" height="50" relative="1" as="geometry">
            <mxPoint x="160" y="150" as="sourcePoint" />
            <mxPoint x="210" y="100" as="targetPoint" />
          </mxGeometry>
        </mxCell>
        <mxCell id="nTHT97Taj1ZtHIrwIVXm-10" value="" style="endArrow=none;html=1;rounded=0;entryX=0.495;entryY=0.953;entryDx=0;entryDy=0;entryPerimeter=0;exitX=0.563;exitY=-0.006;exitDx=0;exitDy=0;exitPerimeter=0;" edge="1" parent="nTHT97Taj1ZtHIrwIVXm-15" source="nTHT97Taj1ZtHIrwIVXm-4" target="nTHT97Taj1ZtHIrwIVXm-1">
          <mxGeometry width="50" height="50" relative="1" as="geometry">
            <mxPoint x="99" y="80" as="sourcePoint" />
            <mxPoint x="200" y="38" as="targetPoint" />
          </mxGeometry>
        </mxCell>
        <mxCell id="nTHT97Taj1ZtHIrwIVXm-12" value="" style="endArrow=none;html=1;rounded=0;entryX=0.447;entryY=1.037;entryDx=0;entryDy=0;entryPerimeter=0;exitX=0.444;exitY=-0.002;exitDx=0;exitDy=0;exitPerimeter=0;" edge="1" parent="nTHT97Taj1ZtHIrwIVXm-15" source="nTHT97Taj1ZtHIrwIVXm-3" target="nTHT97Taj1ZtHIrwIVXm-5">
          <mxGeometry width="50" height="50" relative="1" as="geometry">
            <mxPoint x="109" y="90" as="sourcePoint" />
            <mxPoint x="210" y="48" as="targetPoint" />
          </mxGeometry>
        </mxCell>
        <mxCell id="nTHT97Taj1ZtHIrwIVXm-13" value="" style="endArrow=none;html=1;rounded=0;entryX=0.55;entryY=-0.037;entryDx=0;entryDy=0;entryPerimeter=0;" edge="1" parent="nTHT97Taj1ZtHIrwIVXm-15" target="nTHT97Taj1ZtHIrwIVXm-8">
          <mxGeometry width="50" height="50" relative="1" as="geometry">
            <mxPoint x="270" y="100" as="sourcePoint" />
            <mxPoint x="148" y="149" as="targetPoint" />
          </mxGeometry>
        </mxCell>
        <mxCell id="nTHT97Taj1ZtHIrwIVXm-14" value="" style="endArrow=none;html=1;rounded=0;entryX=0.486;entryY=-0.024;entryDx=0;entryDy=0;entryPerimeter=0;exitX=0.55;exitY=0.998;exitDx=0;exitDy=0;exitPerimeter=0;" edge="1" parent="nTHT97Taj1ZtHIrwIVXm-15" source="nTHT97Taj1ZtHIrwIVXm-4" target="nTHT97Taj1ZtHIrwIVXm-6">
          <mxGeometry width="50" height="50" relative="1" as="geometry">
            <mxPoint x="110" y="122" as="sourcePoint" />
            <mxPoint x="158" y="159" as="targetPoint" />
          </mxGeometry>
        </mxCell>
        <mxCell id="nTHT97Taj1ZtHIrwIVXm-8" value="child process 2" style="text;html=1;align=center;verticalAlign=middle;resizable=0;points=[];autosize=1;strokeColor=none;fillColor=none;" vertex="1" parent="nTHT97Taj1ZtHIrwIVXm-15">
          <mxGeometry x="300" y="140" width="100" height="30" as="geometry" />
        </mxCell>
        <mxCell id="nTHT97Taj1ZtHIrwIVXm-7" value="child process 2" style="text;html=1;align=center;verticalAlign=middle;resizable=0;points=[];autosize=1;strokeColor=none;fillColor=none;" vertex="1" parent="nTHT97Taj1ZtHIrwIVXm-15">
          <mxGeometry x="90" y="140" width="100" height="30" as="geometry" />
        </mxCell>
        <mxCell id="nTHT97Taj1ZtHIrwIVXm-11" value="" style="endArrow=none;html=1;rounded=0;entryX=0.538;entryY=-0.024;entryDx=0;entryDy=0;entryPerimeter=0;exitX=0.444;exitY=1.055;exitDx=0;exitDy=0;exitPerimeter=0;" edge="1" parent="nTHT97Taj1ZtHIrwIVXm-15" source="nTHT97Taj1ZtHIrwIVXm-5" target="nTHT97Taj1ZtHIrwIVXm-7">
          <mxGeometry width="50" height="50" relative="1" as="geometry">
            <mxPoint x="99" y="90" as="sourcePoint" />
            <mxPoint x="200" y="48" as="targetPoint" />
          </mxGeometry>
        </mxCell>
        <mxCell id="nTHT97Taj1ZtHIrwIVXm-18" value="&lt;font style=&quot;font-size: 30px;&quot;&gt;Process group&lt;/font&gt;" style="text;html=1;align=center;verticalAlign=middle;whiteSpace=wrap;rounded=0;" vertex="1" parent="1">
          <mxGeometry x="120" y="-80" width="200" height="60" as="geometry" />
        </mxCell>
        <mxCell id="nTHT97Taj1ZtHIrwIVXm-19" value="process 1" style="rounded=0;whiteSpace=wrap;html=1;" vertex="1" parent="1">
          <mxGeometry x="610" y="40" width="60" height="20" as="geometry" />
        </mxCell>
        <mxCell id="nTHT97Taj1ZtHIrwIVXm-20" value="process 2" style="rounded=0;whiteSpace=wrap;html=1;" vertex="1" parent="1">
          <mxGeometry x="610" y="70" width="60" height="20" as="geometry" />
        </mxCell>
        <mxCell id="nTHT97Taj1ZtHIrwIVXm-21" value="process 3" style="rounded=0;whiteSpace=wrap;html=1;" vertex="1" parent="1">
          <mxGeometry x="610" y="100" width="60" height="20" as="geometry" />
        </mxCell>
        <mxCell id="nTHT97Taj1ZtHIrwIVXm-22" value="process 4" style="rounded=0;whiteSpace=wrap;html=1;" vertex="1" parent="1">
          <mxGeometry x="610" y="130" width="60" height="20" as="geometry" />
        </mxCell>
        <mxCell id="nTHT97Taj1ZtHIrwIVXm-23" value="process 5" style="rounded=0;whiteSpace=wrap;html=1;" vertex="1" parent="1">
          <mxGeometry x="610" y="160" width="60" height="20" as="geometry" />
        </mxCell>
        <mxCell id="nTHT97Taj1ZtHIrwIVXm-25" value="- not linked" style="text;html=1;align=center;verticalAlign=middle;whiteSpace=wrap;rounded=0;" vertex="1" parent="1">
          <mxGeometry x="695" y="60" width="70" height="30" as="geometry" />
        </mxCell>
        <mxCell id="nTHT97Taj1ZtHIrwIVXm-26" value="- individual" style="text;html=1;align=center;verticalAlign=middle;whiteSpace=wrap;rounded=0;" vertex="1" parent="1">
          <mxGeometry x="700" y="40" width="60" height="30" as="geometry" />
        </mxCell>
        <mxCell id="nTHT97Taj1ZtHIrwIVXm-27" value="Ready" style="ellipse;whiteSpace=wrap;html=1;" vertex="1" parent="1">
          <mxGeometry x="30" y="567" width="60" height="35" as="geometry" />
        </mxCell>
        <mxCell id="nTHT97Taj1ZtHIrwIVXm-28" value="Blocked" style="ellipse;whiteSpace=wrap;html=1;" vertex="1" parent="1">
          <mxGeometry x="130" y="650" width="60" height="35" as="geometry" />
        </mxCell>
        <mxCell id="nTHT97Taj1ZtHIrwIVXm-29" value="Running" style="ellipse;whiteSpace=wrap;html=1;" vertex="1" parent="1">
          <mxGeometry x="220" y="567" width="60" height="35" as="geometry" />
        </mxCell>
        <mxCell id="nTHT97Taj1ZtHIrwIVXm-30" value="" style="endArrow=classic;html=1;rounded=0;exitX=1;exitY=0;exitDx=0;exitDy=0;entryX=0;entryY=0;entryDx=0;entryDy=0;" edge="1" parent="1" source="nTHT97Taj1ZtHIrwIVXm-27" target="nTHT97Taj1ZtHIrwIVXm-29">
          <mxGeometry width="50" height="50" relative="1" as="geometry">
            <mxPoint x="180" y="720" as="sourcePoint" />
            <mxPoint x="230" y="670" as="targetPoint" />
            <Array as="points">
              <mxPoint x="160" y="560" />
            </Array>
          </mxGeometry>
        </mxCell>
        <mxCell id="nTHT97Taj1ZtHIrwIVXm-31" value="" style="endArrow=classic;html=1;rounded=0;exitX=0;exitY=1;exitDx=0;exitDy=0;entryX=1;entryY=1;entryDx=0;entryDy=0;" edge="1" parent="1" source="nTHT97Taj1ZtHIrwIVXm-29" target="nTHT97Taj1ZtHIrwIVXm-27">
          <mxGeometry width="50" height="50" relative="1" as="geometry">
            <mxPoint x="91" y="582" as="sourcePoint" />
            <mxPoint x="239" y="582" as="targetPoint" />
            <Array as="points">
              <mxPoint x="160" y="610" />
            </Array>
          </mxGeometry>
        </mxCell>
        <mxCell id="nTHT97Taj1ZtHIrwIVXm-36" value="" style="endArrow=classic;html=1;rounded=0;exitX=0.5;exitY=1;exitDx=0;exitDy=0;entryX=1;entryY=0.5;entryDx=0;entryDy=0;" edge="1" parent="1" source="nTHT97Taj1ZtHIrwIVXm-29" target="nTHT97Taj1ZtHIrwIVXm-28">
          <mxGeometry width="50" height="50" relative="1" as="geometry">
            <mxPoint x="50" y="820" as="sourcePoint" />
            <mxPoint x="100" y="770" as="targetPoint" />
          </mxGeometry>
        </mxCell>
        <mxCell id="nTHT97Taj1ZtHIrwIVXm-37" value="" style="endArrow=classic;html=1;rounded=0;exitX=0;exitY=0.5;exitDx=0;exitDy=0;entryX=0.5;entryY=1;entryDx=0;entryDy=0;" edge="1" parent="1" source="nTHT97Taj1ZtHIrwIVXm-28" target="nTHT97Taj1ZtHIrwIVXm-27">
          <mxGeometry width="50" height="50" relative="1" as="geometry">
            <mxPoint x="260" y="612" as="sourcePoint" />
            <mxPoint x="190" y="678" as="targetPoint" />
          </mxGeometry>
        </mxCell>
        <mxCell id="nTHT97Taj1ZtHIrwIVXm-39" value="a" style="text;html=1;align=center;verticalAlign=middle;whiteSpace=wrap;rounded=0;" vertex="1" parent="1">
          <mxGeometry x="150" y="540" width="20" height="10" as="geometry" />
        </mxCell>
        <mxCell id="nTHT97Taj1ZtHIrwIVXm-40" value="b" style="text;html=1;align=center;verticalAlign=middle;whiteSpace=wrap;rounded=0;" vertex="1" parent="1">
          <mxGeometry x="150" y="592" width="20" height="10" as="geometry" />
        </mxCell>
        <mxCell id="nTHT97Taj1ZtHIrwIVXm-41" value="c" style="text;html=1;align=center;verticalAlign=middle;whiteSpace=wrap;rounded=0;" vertex="1" parent="1">
          <mxGeometry x="220" y="640" width="20" height="10" as="geometry" />
        </mxCell>
        <mxCell id="nTHT97Taj1ZtHIrwIVXm-42" value="d" style="text;html=1;align=center;verticalAlign=middle;whiteSpace=wrap;rounded=0;" vertex="1" parent="1">
          <mxGeometry x="80" y="640" width="20" height="10" as="geometry" />
        </mxCell>
      </root>
    </mxGraphModel>
  </diagram>
</mxfile>
